# AST/ASF file generated using VICON BodyLanguage
# -----------------------------------------------
:version 1.10
:name VICON
:units
  mass 1.0
  length 0.1
  angle deg
:documentation
   .ast/.asf automatically generated from VICON data using
   VICON BodyBuilder and BodyLanguage model FULLBODY5.MOD
:root
   order TX TY TZ RZ RY RX
   axis XYZ
   position 0 0 0  
   orientation 0 -0 0 
:bonedata
  begin
     id 1 
     name lhipjoint
     direction 0.969109 -0.218487 0.11442 
     length 0.544217 
     axis 0 -0 0  XYZ
  end
  begin
     id 2 
     name lfemur
     direction 0.173648 -0.984808 0  
     length 1.81499  
     axis 0 -0 10  XYZ
    dof rx ry rz
    limits (-180.0 180.0)
           (-180.0 180.0)
           (-180.0 180.0)
  end
  begin
     id 3 
     name ltibia
     direction 0.173515 -0.984831 0   
     length 1.55296   
     axis 0 -0 10   XYZ
    dof rx ry rz
    limits (-180.0 180.0)
           (-180.0 180.0)
           (-180.0 180.0)
  end
  begin
     id 4 
     name lfoot
     direction 7.36097e-012 -0.333012 0.942922   
     length 0.509062   
     axis -90 -1.73656e-015 10   XYZ
    dof rx ry rz
    limits (-180.0 180.0)
           (-180.0 180.0)
           (-180.0 180.0)
  end
  begin
     id 5 
     name ltoes
     direction 7.7847e-012 -4.42403e-011 1   
     length 0.249732   
     axis -90 -1.73656e-015 10   XYZ
    dof rx ry rz
    limits (-180.0 180.0)
           (-180.0 180.0)
           (-180.0 180.0)
  end
  begin
     id 6 
     name rhipjoint
     direction -0.966745 -0.226554 0.118645   
     length 0.524838  
     axis 0 -0 0  XYZ 
  end
  begin
     id 7 
     name rfemur
     direction -0.173648 -0.984808 0   
     length 1.84625   
     axis 0 -0 -10   XYZ
    dof rx ry rz
    limits (-180.0 180.0)
           (-180.0 180.0)
           (-180.0 180.0)
  end
  begin
     id 8 
     name rtibia
     direction -0.173714 -0.984796 0   
     length 1.577   
     axis 0 -0 -10   XYZ
    dof rx ry rz
    limits (-180.0 180.0)
           (-180.0 180.0)
           (-180.0 180.0)
 end
 begin
     id 9 
     name rfoot
     direction -0.0183819 -0.0406144 0.999006   
     length 0.490111  
     axis -90 1.73656e-015 -10   XYZ
    dof rx ry rz
    limits (-180.0 180.0)
           (-180.0 180.0)
           (-180.0 180.0)
  end
  begin
     id 10 
     name rtoes
     direction -7.79087e-012 -4.42375e-011 1   
     length 0.245053   
     axis -90 1.73656e-015 -10   XYZ
    dof rx ry rz
    limits (-180.0 180.0)
           (-180.0 180.0)
           (-180.0 180.0)
  end
  begin
     id 11 
     name lowerback
     direction -0.0664844 0.980601 0.184393   
     length 0.458979   
     axis 0 -0 0   XYZ
    dof rx ry rz
    limits (-180.0 180.0)
           (-180.0 180.0)
           (-180.0 180.0)
  end
  begin
     id 12 
     name upperback
     direction 0.0135995 0.999573 0.02588   
     length 0.463983   
     axis 0 -0 0   XYZ
    dof rx ry rz
    limits (-180.0 180.0)
           (-180.0 180.0)
           (-180.0 180.0)
  end
  begin
     id 13 
     name thorax
     direction 0.0468402 0.997311 -0.0563691   
     length 0.482746   
     axis 0 -0 0   XYZ
    dof rx ry rz
    limits (-180.0 180.0)
           (-180.0 180.0)
           (-180.0 180.0)
  end
  begin
     id 14 
     name lowerneck
     direction -0.00174311 0.988586 -0.150647   
     length 0.364383   
     axis 0 -0 0   XYZ
    dof rx ry rz
    limits (-180.0 180.0)
           (-180.0 180.0)
           (-180.0 180.0)
  end
  begin
     id 15 
     name upperneck
     direction -0.02653 0.999379 -0.0231908   
     length 0.361006   
     axis 0 -0 0   XYZ
    dof rx ry rz
    limits (-180.0 180.0)
           (-180.0 180.0)
           (-180.0 180.0)
  end
  begin
     id 16
     name head
     direction -0.00819207 0.999941 0.00714285  
     length 0.378714  
     axis 0 -0 0   XYZ
    dof rx ry rz
    limits (-180.0 180.0)
           (-180.0 180.0)
           (-180.0 180.0)
  end
  begin
     id 17 
     name lshoulderjoint
     direction 0.981627 -0.190809 0  
     length 0.612969  
     axis 0 -0 -11   XYZ
    dof rx ry rz
    limits (-180.0 180.0)
           (-180.0 180.0)
           (-180.0 180.0)
  end
  begin
     id 18 
     name lhumerus
     direction 0.48481 -0.87462 -9.72962e-027   
     length 1.19637   
     axis -180 5.14477e-009 -151   XYZ
    dof rx ry rz
    limits (-180.0 180.0)
           (-180.0 180.0)
           (-180.0 180.0)
  end
  begin
     id 19
     name lradius
     direction 0.48481 -0.87462 -2.35761e-026   
     length 0.637735   
     axis -180 5.14477e-009 -151   XYZ
    dof rx ry rz
    limits (-180.0 180.0)
           (-180.0 180.0)
           (-180.0 180.0)
  end
  begin
     id 20
     name lwrist
     direction 0.48481 -0.87462 -5.51856e-026   
     length 0.318868   
     axis -180 5.14477e-009 -151   XYZ
    dof rx ry rz
    limits (-180.0 180.0)
           (-180.0 180.0)
           (-180.0 180.0)
  end
  begin
     id 21 
     name lhand
     direction 0.477747 -0.861928 -0.169816   
     length 0.29526   
     axis -180 5.14477e-009 -151   XYZ
    dof rx ry rz
    limits (-180.0 180.0)
           (-180.0 180.0)
           (-180.0 180.0)
  end
  begin
     id 22 
     name rshoulderjoint
     direction -0.981627 -0.190809 0   
     length 0.572347  
     axis 0 -0 11   XYZ 
    dof rx ry rz
    limits (-180.0 180.0)
           (-180.0 180.0)
           (-180.0 180.0)
  end
  begin
     id 23 
     name rhumerus
     direction -0.48481 -0.87462 1.64836e-026  
     length 1.28846   
     axis 180 5.14477e-009 151   XYZ
    dof rx ry rz
    limits (-180.0 180.0)
           (-180.0 180.0)
           (-180.0 180.0)
  end
  begin
     id 24 
     name rradius
     direction -0.48481 -0.87462 2.86827e-026   
     length 0.62107   
     axis 180 5.14477e-009 151   XYZ
    dof rx ry rz
    limits (-180.0 180.0)
           (-180.0 180.0)
           (-180.0 180.0)
  end
  begin
     id 25 
     name rwrist
     direction -0.48481 -0.87462 5.20942e-026   
     length 0.310535   
     axis 180 5.14477e-009 151   XYZ
    dof rx ry rz
    limits (-180.0 180.0)
           (-180.0 180.0)
           (-180.0 180.0)
  end
  begin
     id 26
     name rhand
     direction -0.477664 -0.861515 -0.172133   
     length 0.291321   
     axis 180 5.14477e-009 151   XYZ
    dof rx ry rz
    limits (-180.0 180.0)
           (-180.0 180.0)
           (-180.0 180.0)
  end
:hierarchy
  begin
    root lhipjoint rhipjoint lowerback 
    lhipjoint lfemur
    lfemur ltibia
    ltibia lfoot
    lfoot ltoes
    rhipjoint rfemur
    rfemur rtibia
    rtibia rfoot
    rfoot rtoes
    lowerback upperback
    upperback thorax
    thorax lowerneck lshoulderjoint rshoulderjoint
    lowerneck upperneck
    upperneck head
    lshoulderjoint lhumerus
    lhumerus lradius
    lradius lwrist
    lwrist lhand
    rshoulderjoint rhumerus
    rhumerus rradius
    rradius rwrist
    rwrist rhand
  end

:FULLY-SPECIFIED
:DEGREES
777
root 10.1456 3.67969 -0.500792 89.4512 -66.2637 88.2545
lowerback -27.0859 -1.05305 -6.63502
upperback -7.38043 -0.306962 0.95822
thorax 6.7261 -0.457994 4.75586
lowerneck 13.8069 -2.98966 2.2877
upperneck 6.47825 -3.92403 -5.21937
head -0.432695 -1.98817 -1.86442
rshoulderjoint -2.55803 7.64931 -29.5534
rhumerus 345.804 -9.66136 -412.606
rradius 25.0232 1.86858e-014 1.4551e-013
rwrist -1.48072e-012 -2.79612 1.78323e-013
rhand -4.79874 2.58459 23.0676
lshoulderjoint -1.92905 -5.87153 29.2238
lhumerus 348.683 17.8908 415.627
lradius 15.49 -2.06736e-013 1.3085e-013
lwrist -1.23467e-012 -7.35312 2.10054e-013
lhand 6.68637 6.20627 -34.3857
rfemur -20.8716 17.7541 6.30522
rtibia 3.39488 -3.49861e-014 -9.54166e-015
rfoot -175.264 -29.1912 159.442
rtoes 1.84472e-013 7.25316e-014 -7.29043e-014
lfemur -15.7854 -18.5577 -8.96395
ltibia 8.90555e-014 2.22639e-014 9.93923e-015
lfoot -9.21308 5.0737 20.4917
ltoes -3.00662e-013 5.9859e-014 -3.18055e-015
778
root 10.1415 3.67939 -0.50236 89.4737 -66.1607 88.28
lowerback -27.1659 -1.06364 -6.65692
upperback -7.42089 -0.317206 0.972175
thorax 6.72062 -0.464174 4.78106
lowerneck 13.851 -2.98278 2.29869
upperneck 6.49562 -3.91401 -5.24061
head -0.434859 -1.98311 -1.87347
rshoulderjoint -2.5658 7.66696 -29.5663
rhumerus 345.717 -9.72852 -412.583
rradius 25.08 -3.40512e-014 4.77083e-015
rwrist 9.23463e-013 -2.79921 8.91619e-014
rhand -4.85471 2.62593 23.0237
lshoulderjoint -1.92422 -5.85786 29.2206
lhumerus 348.597 18.23 415.59
lradius 15.45 1.01778e-013 -2.78795e-014
lwrist 8.64642e-013 -7.54319 -8.0208e-016
lhand 6.8366 6.22295 -34.5723
rfemur -20.8162 17.7864 6.30812
rtibia 3.17472 6.36111e-015 4.77083e-015
rfoot -175.35 -29.2298 159.477
rtoes -1.05356e-013 -8.14023e-014 7.27521e-014
lfemur -15.8244 -18.5673 -8.9112
ltibia -1.11319e-014 6.36111e-015 -3.57812e-015
lfoot -9.28297 5.15647 20.5061
ltoes 1.30204e-013 -4.17137e-014 2.22639e-014
779
root 10.1374 3.67917 -0.50412 89.5152 -66.0262 88.349
lowerback -27.3039 -1.06178 -6.66162
upperback -7.45505 -0.31159 0.976713
thorax 6.74862 -0.46429 4.79123
lowerneck 13.8797 -2.98735 2.31937
upperneck 6.52286 -3.91749 -5.25204
head -0.43174 -1.98495 -1.88057
rshoulderjoint -2.5542 7.6344 -29.561
rhumerus 345.695 -9.62805 -412.586
rradius 25.0655 -9.92681e-015 1.1609e-013
rwrist -3.31181e-013 -2.82967 1.99823e-013
rhand -4.92009 2.56043 23.0232
lshoulderjoint -1.94534 -5.90871 29.26
lhumerus 348.513 18.5417 415.565
lradius 15.3917 1.04958e-013 4.31363e-014
lwrist -3.14595e-013 -7.7871 -2.40762e-014
lhand 6.96325 6.38377 -34.8025
rfemur -20.7948 17.8355 6.32429
rtibia 2.94074 -3.18055e-015 0
rfoot -175.437 -29.2786 159.493
rtoes 1.98785e-015 5.59703e-014 -9.94545e-014
lfemur -15.8932 -18.5573 -8.82364
ltibia 6.20208e-014 2.22639e-014 0
lfoot -9.35862 5.21286 20.498
ltoes -1.20861e-013 4.87395e-014 4.85035e-014
780
root 10.1329 3.6788 -0.506022 89.5039 -65.9205 88.3617
lowerback -27.4245 -1.08458 -6.68093
upperback -7.47028 -0.334675 1.00986
thorax 6.79292 -0.478364 4.83264
lowerneck 13.8802 -2.97727 2.27291
upperneck 6.55188 -3.91125 -5.25138
head -0.420966 -1.98375 -1.87261
rshoulderjoint -2.56944 7.67364 -29.5758
rhumerus 345.659 -9.72161 -412.55
rradius 25.0652 -2.93518e-015 -7.79236e-014
rwrist 4.87218e-013 -2.82662 -1.21008e-013
rhand -4.9355 2.59741 22.9926
lshoulderjoint -1.94114 -5.91025 29.2187
lhumerus 348.449 18.7143 415.522
lradius 15.342 1.09729e-013 -1.06499e-013
lwrist 3.45295e-013 -8.03002 -2.10389e-013
lhand 7.05571 6.6782 -35.0909
rfemur -20.6807 17.8658 6.35404
rtibia 2.60149 3.81667e-014 -3.97569e-015
rfoot -175.57 -29.344 159.547
rtoes 4.17448e-014 1.34155e-013 -2.04686e-014
lfemur -15.9301 -18.5696 -8.74281
ltibia 1.74931e-014 -3.18055e-014 -6.75868e-015
lfoot -9.4419 5.28721 20.5158
ltoes -4.36332e-014 8.93723e-014 5.32743e-014
781
root 10.1274 3.67873 -0.507528 89.7787 -65.8618 88.621
lowerback -27.5659 -1.06446 -6.67633
upperback -7.44872 -0.300079 0.997493
thorax 6.88164 -0.466261 4.82829
lowerneck 13.8722 -2.98341 2.30458
upperneck 6.56126 -3.91484 -5.25158
head -0.417525 -1.98517 -1.87825
rshoulderjoint -2.60084 7.83656 -29.4255
rhumerus 345.593 -9.88672 -412.379
rradius 25.0851 3.20261e-014 -1.7016e-013
rwrist 1.62408e-013 -2.84037 -3.26408e-013
rhand -4.94092 2.59759 22.9561
lshoulderjoint -1.92525 -5.86463 29.2101
lhumerus 348.409 19.1205 415.445
lradius 15.2768 -3.30778e-013 4.79568e-014
lwrist 1.0931e-013 -8.39546 2.86136e-013
lhand 7.27342 6.90042 -35.3522
rfemur -20.4589 18.0001 6.33333
rtibia 2.13187 -1.59028e-014 1.59028e-015
rfoot -175.785 -29.4303 159.638
rtoes -9.46215e-014 -1.44914e-013 5.25413e-014
lfemur -15.8748 -18.485 -8.753
ltibia -6.36111e-014 3.49861e-014 7.95139e-016
lfoot -9.56517 5.41639 20.5085
ltoes 9.98893e-014 -8.68565e-014 -5.88403e-014
